<svg width="2625" height="547" viewBox="0 0 2625 547" fill="none" xmlns="http://www.w3.org/2000/svg">
<path d="M346.818 194.469C343.338 182.371 338.449 171.682 332.152 162.402C325.855 152.956 318.149 145.001 309.034 138.538C300.085 131.91 289.811 126.855 278.21 123.375C266.776 119.895 254.098 118.155 240.178 118.155C214.16 118.155 191.29 124.618 171.57 137.544C152.015 150.47 136.768 169.279 125.831 193.972C114.893 218.498 109.425 248.493 109.425 283.957C109.425 319.421 114.811 349.582 125.582 374.44C136.354 399.298 151.6 418.273 171.321 431.365C191.042 444.291 214.325 450.754 241.172 450.754C265.533 450.754 286.331 446.446 303.565 437.828C320.966 429.045 334.224 416.699 343.338 400.79C352.618 384.881 357.259 366.071 357.259 344.362L379.134 347.594H247.884V266.557H460.916V330.69C460.916 375.435 451.47 413.882 432.578 446.031C413.686 478.015 387.668 502.707 354.524 520.108C321.38 537.343 283.43 545.96 240.675 545.96C192.947 545.96 151.02 535.437 114.893 514.391C78.7666 493.179 50.5942 463.1 30.3764 424.156C10.3243 385.046 0.298296 338.645 0.298296 284.952C0.298296 243.687 6.26421 206.898 18.196 174.582C30.2936 142.101 47.197 114.592 68.9062 92.054C90.6155 69.5161 115.888 52.3641 144.723 40.598C173.558 28.8319 204.796 22.9488 238.438 22.9488C267.273 22.9488 294.119 27.1747 318.977 35.6264C343.835 43.9124 365.876 55.6785 385.099 70.9247C404.489 86.1709 420.315 104.317 432.578 125.364C444.841 146.244 452.713 169.279 456.193 194.469H346.818ZM563.704 539V157.182H669.599V539H563.704ZM616.9 107.963C601.156 107.963 587.65 102.743 576.381 92.3025C565.278 81.6965 559.727 69.0189 559.727 54.2699C559.727 39.6865 565.278 27.1747 576.381 16.7344C587.65 6.1283 601.156 0.825258 616.9 0.825258C632.643 0.825258 646.067 6.1283 657.17 16.7344C668.439 27.1747 674.073 39.6865 674.073 54.2699C674.073 69.0189 668.439 81.6965 657.17 92.3025C646.067 102.743 632.643 107.963 616.9 107.963ZM957.516 157.182V236.727H727.58V157.182H957.516ZM779.782 65.7045H885.676V421.67C885.676 431.448 887.168 439.071 890.151 444.54C893.134 449.843 897.277 453.571 902.58 455.726C908.049 457.88 914.346 458.957 921.472 458.957C926.444 458.957 931.415 458.543 936.387 457.714C941.358 456.72 945.17 455.974 947.821 455.477L964.476 534.277C959.173 535.934 951.716 537.84 942.104 539.994C932.492 542.314 920.809 543.723 907.054 544.22C881.534 545.214 859.161 541.817 839.938 534.028C820.88 526.24 806.048 514.142 795.442 497.736C784.836 481.33 779.616 460.615 779.782 435.591V65.7045ZM1036.69 539V29.9091H1237.54C1275.99 29.9091 1308.8 36.7864 1335.98 50.5412C1363.32 64.1302 1384.12 83.4365 1398.37 108.46C1412.79 133.318 1420 162.568 1420 196.209C1420 230.016 1412.71 259.099 1398.12 283.46C1383.54 307.655 1362.41 326.216 1334.74 339.142C1307.23 352.068 1273.92 358.531 1234.81 358.531H1100.32V272.026H1217.41C1237.96 272.026 1255.02 269.208 1268.61 263.574C1282.2 257.939 1292.31 249.488 1298.94 238.219C1305.73 226.95 1309.13 212.946 1309.13 196.209C1309.13 179.305 1305.73 165.053 1298.94 153.453C1292.31 141.853 1282.12 133.07 1268.36 127.104C1254.78 120.972 1237.62 117.906 1216.91 117.906H1144.32V539H1036.69ZM1311.62 307.324L1438.14 539H1319.32L1195.53 307.324H1311.62ZM1661.93 546.457C1622.65 546.457 1588.85 538.503 1560.51 522.594C1532.34 506.519 1510.63 483.815 1495.38 454.483C1480.13 424.985 1472.51 390.101 1472.51 349.831C1472.51 310.555 1480.13 276.086 1495.38 246.422C1510.63 216.758 1532.09 193.64 1559.76 177.068C1587.6 160.496 1620.25 152.21 1657.7 152.21C1682.89 152.21 1706.34 156.27 1728.05 164.391C1749.93 172.345 1768.98 184.36 1785.22 200.435C1801.63 216.509 1814.39 236.727 1823.5 261.088C1832.62 285.283 1837.18 313.621 1837.18 346.102V375.186H1514.77V309.561H1737.5C1737.5 294.315 1734.18 280.809 1727.55 269.043C1720.92 257.277 1711.73 248.079 1699.96 241.45C1688.36 234.656 1674.85 231.259 1659.44 231.259C1643.37 231.259 1629.12 234.987 1616.69 242.445C1604.42 249.736 1594.81 259.597 1587.85 272.026C1580.89 284.289 1577.33 297.961 1577.16 313.041V375.435C1577.16 394.327 1580.64 410.65 1587.6 424.405C1594.73 438.16 1604.75 448.766 1617.68 456.223C1630.61 463.68 1645.94 467.409 1663.67 467.409C1675.43 467.409 1686.21 465.752 1695.98 462.438C1705.76 459.123 1714.13 454.152 1721.09 447.523C1728.05 440.894 1733.35 432.774 1737 423.162L1834.94 429.625C1829.97 453.157 1819.78 473.706 1804.36 491.273C1789.12 508.673 1769.4 522.262 1745.2 532.04C1721.17 541.652 1693.42 546.457 1661.93 546.457ZM2015.16 546.209C1990.8 546.209 1969.09 541.983 1950.03 533.531C1930.97 524.914 1915.89 512.236 1904.79 495.499C1893.85 478.595 1888.38 457.549 1888.38 432.359C1888.38 411.147 1892.28 393.332 1900.07 378.915C1907.86 364.497 1918.46 352.897 1931.89 344.114C1945.31 335.33 1960.56 328.702 1977.62 324.227C1994.86 319.753 2012.92 316.604 2031.81 314.781C2054.02 312.461 2071.92 310.307 2085.51 308.318C2099.1 306.164 2108.96 303.015 2115.09 298.872C2121.22 294.729 2124.29 288.598 2124.29 280.477V278.986C2124.29 263.242 2119.31 251.062 2109.37 242.445C2099.59 233.827 2085.67 229.518 2067.61 229.518C2048.55 229.518 2033.39 233.744 2022.12 242.196C2010.85 250.482 2003.39 260.922 1999.75 273.517L1901.81 265.562C1906.78 242.362 1916.56 222.31 1931.14 205.406C1945.72 188.337 1964.53 175.245 1987.57 166.131C2010.77 156.85 2037.61 152.21 2068.11 152.21C2089.32 152.21 2109.62 154.696 2129.01 159.668C2148.56 164.639 2165.88 172.345 2180.96 182.785C2196.21 193.226 2208.22 206.649 2217.01 223.055C2225.79 239.296 2230.18 258.768 2230.18 281.472V539H2129.75V486.053H2126.77C2120.64 497.984 2112.44 508.508 2102.16 517.622C2091.89 526.571 2079.54 533.614 2065.12 538.751C2050.71 543.723 2034.05 546.209 2015.16 546.209ZM2045.49 473.126C2061.06 473.126 2074.82 470.061 2086.75 463.929C2098.68 457.632 2108.05 449.18 2114.84 438.574C2121.63 427.968 2125.03 415.953 2125.03 402.53V362.011C2121.72 364.166 2117.16 366.154 2111.36 367.977C2105.73 369.634 2099.35 371.209 2092.22 372.7C2085.09 374.026 2077.97 375.269 2070.84 376.429C2063.72 377.423 2057.25 378.335 2051.45 379.163C2039.02 380.986 2028.17 383.886 2018.89 387.864C2009.61 391.841 2002.4 397.227 1997.26 404.021C1992.12 410.65 1989.56 418.936 1989.56 428.879C1989.56 443.297 1994.78 454.317 2005.22 461.94C2015.82 469.398 2029.25 473.126 2045.49 473.126ZM2418.23 29.9091V539H2312.34V29.9091H2418.23ZM2564.96 545.463C2548.55 545.463 2534.46 539.663 2522.7 528.062C2511.1 516.296 2505.3 502.21 2505.3 485.804C2505.3 469.563 2511.1 455.643 2522.7 444.043C2534.46 432.442 2548.55 426.642 2564.96 426.642C2580.86 426.642 2594.79 432.442 2606.72 444.043C2618.65 455.643 2624.61 469.563 2624.61 485.804C2624.61 496.741 2621.8 506.768 2616.16 515.882C2610.69 524.831 2603.49 532.04 2594.54 537.509C2585.59 542.812 2575.73 545.463 2564.96 545.463Z" fill="white"/>
</svg>
